<svg xmlns="http://www.w3.org/2000/svg" viewBox="0 0 100 100" width="100" height="100"><defs><linearGradient id="g" x1="0%" y1="0%" x2="100%" y2="100%"><stop offset="0%" stop-color="#f97316"/><stop offset="100%" stop-color="#ea580c"/></linearGradient></defs><circle cx="50" cy="50" r="50" fill="url(#g)"/><polygon points="20,38 28,14 42,34" fill="#9a3412"/><polygon points="80,38 72,14 58,34" fill="#9a3412"/><polygon points="23,36 29,19 39,34" fill="#ffffff"/><polygon points="77,36 71,19 61,34" fill="#ffffff"/><path d="M22 46 C24 72 40 82 50 82 C60 82 76 72 78 46 C78 35 68 36 50 36 C32 36 22 35 22 46 Z" fill="#fb923c"/><path d="M28 54 C35 68 45 74 50 78 C55 74 65 68 72 54 C68 46 62 48 50 56 C38 48 32 46 28 54 Z" fill="#ffffff"/><circle cx="38" cy="48" r="4" fill="#1e293b"/><circle cx="62" cy="48" r="4" fill="#1e293b"/><circle cx="39.5" cy="46.5" r="1.3" fill="#ffffff"/><circle cx="63.5" cy="46.5" r="1.3" fill="#ffffff"/><ellipse cx="50" cy="75" rx="4.5" ry="3" fill="#1e293b"/></svg>