<svg xmlns="http://www.w3.org/2000/svg" viewBox="0 0 100 100" width="100" height="100"><defs><linearGradient id="g" x1="0%" y1="0%" x2="100%" y2="100%"><stop offset="0%" stop-color="#10b981"/><stop offset="100%" stop-color="#059669"/></linearGradient></defs><circle cx="50" cy="50" r="50" fill="url(#g)"/><circle cx="28" cy="28" r="11" fill="#1e293b"/><circle cx="72" cy="28" r="11" fill="#1e293b"/><circle cx="28" cy="28" r="6" fill="#334155"/><circle cx="72" cy="28" r="6" fill="#334155"/><ellipse cx="50" cy="56" rx="28" ry="24" fill="#ffffff"/><ellipse cx="38" cy="50" rx="7" ry="9" fill="#1e293b" transform="rotate(-15 38 50)"/><ellipse cx="62" cy="50" rx="7" ry="9" fill="#1e293b" transform="rotate(15 62 50)"/><circle cx="39" cy="49" r="3" fill="#ffffff"/><circle cx="61" cy="49" r="3" fill="#ffffff"/><ellipse cx="50" cy="62" rx="4.5" ry="3" fill="#1e293b"/><path d="M47 66 Q50 69 53 66" stroke="#1e293b" stroke-width="1.8" fill="none" stroke-linecap="round"/><ellipse cx="28" cy="58" rx="3" ry="2" fill="#fbcfe8"/><ellipse cx="72" cy="58" rx="3" ry="2" fill="#fbcfe8"/></svg>