<svg xmlns="http://www.w3.org/2000/svg" viewBox="0 0 100 100" width="100" height="100"><defs><linearGradient id="g" x1="0%" y1="0%" x2="100%" y2="100%"><stop offset="0%" stop-color="#38bdf8"/><stop offset="100%" stop-color="#0284c7"/></linearGradient></defs><circle cx="50" cy="50" r="50" fill="url(#g)"/><ellipse cx="36" cy="26" rx="6" ry="18" fill="#ffffff" transform="rotate(-10 36 26)"/><ellipse cx="64" cy="26" rx="6" ry="18" fill="#ffffff" transform="rotate(10 64 26)"/><ellipse cx="36" cy="26" rx="3" ry="13" fill="#f472b6" transform="rotate(-10 36 26)"/><ellipse cx="64" cy="26" rx="3" ry="13" fill="#f472b6" transform="rotate(10 64 26)"/><ellipse cx="50" cy="58" rx="26" ry="22" fill="#ffffff"/><circle cx="39" cy="52" r="4" fill="#1e293b"/><circle cx="61" cy="52" r="4" fill="#1e293b"/><circle cx="40.5" cy="50.5" r="1.3" fill="#ffffff"/><circle cx="62.5" cy="50.5" r="1.3" fill="#ffffff"/><polygon points="47,59 53,59 50,62" fill="#f472b6"/><path d="M47 63 Q50 66 53 63" stroke="#1e293b" stroke-width="1.5" fill="none" stroke-linecap="round"/><ellipse cx="30" cy="59" rx="3.5" ry="2" fill="#fbcfe8"/><ellipse cx="70" cy="59" rx="3.5" ry="2" fill="#fbcfe8"/></svg>